<svg width="56" height="56" viewBox="0 0 56 56" fill="none" xmlns="http://www.w3.org/2000/svg">
<g id="mathem/loader">
<path id="icon" d="M49.3333 29.5C49.4763 29.5 49.5923 29.5574 49.6655 29.6326C49.7334 29.7024 49.7609 29.7802 49.7532 29.8694C49.3246 34.8585 47.1903 39.5708 43.6791 43.1941C39.732 47.2672 34.3548 49.6444 28.6858 49.8226C23.0168 50.0007 17.5009 47.9658 13.3059 44.1486C9.11085 40.3314 6.56589 35.0315 6.20975 29.3709C5.85362 23.7103 7.71426 18.1333 11.3978 13.8204C15.0814 9.50751 20.2987 6.79733 25.9453 6.26357C31.5919 5.7298 37.2247 7.41435 41.6511 10.9606C45.5887 14.1152 48.2969 18.5229 49.3474 23.419C49.3662 23.5065 49.3487 23.5871 49.29 23.6649C49.2268 23.7486 49.1189 23.8201 48.9771 23.8381L48.3157 23.9216C48.077 23.9518 47.7242 23.7754 47.6227 23.3472C46.5905 18.9937 44.1328 15.0844 40.6091 12.2613C36.5205 8.98577 31.3177 7.42982 26.1021 7.92284C20.8866 8.41586 16.0675 10.9192 12.6651 14.9028C9.26279 18.8865 7.54418 24.0378 7.87313 29.2663C8.20208 34.4948 10.5528 39.3901 14.4276 42.9159C18.3024 46.4417 23.3972 48.3213 28.6334 48.1567C33.8697 47.9922 38.8364 45.7964 42.4822 42.0342C45.6243 38.7918 47.5727 34.6053 48.0511 30.1567C48.0981 29.7192 48.4261 29.5 48.6667 29.5H49.3333Z" stroke="url(#paint0_angular_855_3653)" stroke-width="3" stroke-linejoin="round"/>
</g>
<defs>
<radialGradient id="paint0_angular_855_3653" cx="0" cy="0" r="1" gradientUnits="userSpaceOnUse" gradientTransform="translate(28 28) scale(20.7407)">
<stop stop-color="#481AAA" stop-opacity="0"/>
<stop offset="1" stop-color="#481AAA"/>
</radialGradient>
</defs>
</svg>
